# xmcd
#
# Track frame offsets: 
#        150
#        17531
#        32945
#        48556
#        67150
#
# Disc length: 1149 seconds
#
# Revision: 0
# Processed by: cddbd v1.5.2PL0 Copyright (c) Steve Scherf et al.
# Submitted via: ExactAudioCopy v0.99pb4
#
DISCID=41047b05
DTITLE=Cerys Mathews - Awyren =Aeroplane
DYEAR=2007
DGENRE=Country
TTITLE0=Awyrennau
TTITLE1=Y Cerryn Ar Pry'
TTITLE2=Trwy'r Drych
TTITLE3=Lisa Lan
TTITLE4==Aeroplane
EXTD=
EXTT0=
EXTT1=
EXTT2=
EXTT3=
EXTT4=
PLAYORDER=
